PathFileType	4	(x/y/z)	S04_P20_T04.trc
DataRate	CameraRate	NumFrames	NumMarkers	Units	OrigDataRate	OrigDataStartFrame	OrigNumFrames
240	240	10	51	mm	240	90	358
Frame#	Time	Sternum			R.Acromium			L.Acromium			Top.Head			R.ASIS			L.ASIS			R.PSIS			L.PSIS			R.Great.Tro			L.Great.Tro			R.Iliac.Crest			L.Iliac.Crest			V.Sacral			R.Thigh.Upper.Post			R.Thigh.Lower.Ant			R.Thigh.Lower.Post			R.Thigh.Upper.Ant			R.Knee.Lat			R.Knee.Med			R.Shank.Upper.Post			R.Shank.Lower.Ant			R.Shank.Lower.Post			R.Shank.Upper.Ant			R.Ankle.Lat			R.Ankle.Med			R.Heel.Upper			R.Heel.Med			R.Heel.Lat			R.Toe.Lat			R.Toe.Med			R.Toe.Tip			L.Thigh.Upper.Post			L.Thigh.Lower.Ant			L.Thigh.Lower.Post			L.Thigh.Upper.Ant			L.Knee.Lat			L.Knee.Med			L.Shank.Upper.Post			L.Shank.Lower.Ant			L.Shank.Lower.Post			L.Shank.Upper.Ant			L.Ankle.Lat			L.Ankle.Med			L.Heel.Upper			L.Heel.Med			L.Heel.Lat			L.Toe.Lat			L.Toe.Med			L.Toe.Tip			Cervical.Spine			Back			
		X1	Y1	Z1	X2	Y2	Z2	X3	Y3	Z3	X4	Y4	Z4	X5	Y5	Z5	X6	Y6	Z6	X7	Y7	Z7	X8	Y8	Z8	X9	Y9	Z9	X10	Y10	Z10	X11	Y11	Z11	X12	Y12	Z12	X13	Y13	Z13	X14	Y14	Z14	X15	Y15	Z15	X16	Y16	Z16	X17	Y17	Z17	X18	Y18	Z18	X19	Y19	Z19	X20	Y20	Z20	X21	Y21	Z21	X22	Y22	Z22	X23	Y23	Z23	X24	Y24	Z24	X25	Y25	Z25	X26	Y26	Z26	X27	Y27	Z27	X28	Y28	Z28	X29	Y29	Z29	X30	Y30	Z30	X31	Y31	Z31	X32	Y32	Z32	X33	Y33	Z33	X34	Y34	Z34	X35	Y35	Z35	X36	Y36	Z36	X37	Y37	Z37	X38	Y38	Z38	X39	Y39	Z39	X40	Y40	Z40	X41	Y41	Z41	X42	Y42	Z42	X43	Y43	Z43	X44	Y44	Z44	X45	Y45	Z45	X46	Y46	Z46	X47	Y47	Z47	X48	Y48	Z48	X49	Y49	Z49	X50	Y50	Z50	X51	Y51	Z51	

90	0.37083	-889.53	1279.2	257.76	-990.56	1518.7	432.37	-1017.6	1498	84.999	-888.54	1826.1	234.65	-931.61	1005.5	395.2	-946	1018.7	148.35	-1151.8	1038	313.14	-1149.1	1044.8	232.17	-1010.3	928.16	468.63	-1071.6	933.61	93.873	-1014.5	1098.4	443.26	-1044.9	1100.7	108.35	-1173.6	1000.5	273.48	-915.97	681.56	461.07	-819.45	631.16	416.48	-884.46	596.71	444.41	-849.35	736.63	438.09	-845.21	539.32	431.62	-869.12	530.65	299.04	-922.97	317.61	428.64	-855.16	238.45	393.2	-923.17	247.69	414.59	-858.11	308.4	415.06	-912.58	131.87	397.57	-884.92	145.3	312.06	-969.83	94.141	335.03	-952.91	65.346	306.4	-966.93	61.799	369.2	-806.44	64.854	440.23	-754.35	70.307	328.84	-700.81	93.567	383.31	-1092.6	699.58	111.18	-1016.1	599.5	114.36	-1086.8	610.72	123.89	-1026.5	688.23	97.484	-1052.8	511.86	131.99	-1045	502.22	255.58	-1158	343.55	137.51	-1100.4	248.59	140.75	-1162.4	265.07	147.51	-1098.1	324.76	131.52	-1139.2	102.45	164.21	-1136.3	112.32	257.33	-1218.4	73.116	210.16	-1211.9	47.634	243.3	-1215.4	45.691	182.07	-1030.8	42.302	142.61	-999.08	47.091	258.7	-942.18	57.185	209.11	-1045.5	1567.9	263.81	-1153.4	1314.2	253.09
91	0.375	-884.04	1278.7	257.79	-985.17	1518.2	432.3	-1011.8	1497.5	84.881	-883.02	1825.6	234.68	-926.23	1005	395.1	-940.92	1018.1	148.28	-1146.3	1037.6	313.28	-1143.6	1044.4	232.36	-1005	927.81	468.82	-1066.8	933.33	94.002	-1008.7	1097.9	443.2	-1039.7	1100.2	108.35	-1168	1000.2	273.69	-911.01	681.06	461.02	-814.49	630.73	416.42	-879.4	596.22	444.35	-844.46	736.17	438.03	-839.66	539.18	431.61	-863.76	530.09	299	-912.05	315.74	428.66	-842.33	238.41	392.98	-910.5	245.86	414.59	-847.04	308.23	414.9	-896.75	130.26	397.42	-869.45	144.47	311.76	-953.36	91.292	334.97	-935.84	62.929	306.24	-949.55	58.965	369.09	-788.88	65.851	439.55	-737.34	72.597	327.92	-684.19	97.072	382.22	-1089.4	699.73	111.4	-1013.6	599.14	114.49	-1084.2	610.81	124.05	-1023.4	687.94	97.657	-1050.9	511.67	132	-1043	501.95	255.6	-1156.8	343.87	137.57	-1099.7	248.62	140.77	-1161.5	265.38	147.59	-1097	324.77	131.55	-1139	102.58	164.34	-1136.1	112.39	257.45	-1218.4	73.269	210.29	-1211.8	47.706	243.4	-1215.3	45.883	182.15	-1030.7	42.301	142.63	-999.02	46.86	258.76	-942.08	56.9	209.13	-1040	1567.5	263.63	-1147.7	1313.8	252.87
92	0.37917	-878.54	1278.1	257.82	-979.75	1517.7	432.26	-1006	1497	84.779	-877.5	1825.2	234.73	-920.84	1004.5	395.03	-935.81	1017.5	148.22	-1140.7	1037.3	313.42	-1138.1	1043.9	232.55	-999.73	927.41	469.02	-1062	933.02	94.132	-1002.9	1097.4	443.16	-1034.5	1099.8	108.36	-1162.4	999.72	273.89	-906.13	680.46	460.96	-809.62	630.21	416.41	-874.46	595.63	444.28	-839.63	735.62	438.02	-834.17	538.99	431.62	-858.45	529.46	298.97	-901.17	313.94	428.7	-829.61	238.48	392.77	-897.89	244.16	414.62	-836.06	308.14	414.73	-881.02	128.86	397.29	-854.12	143.81	311.46	-937	88.671	334.95	-918.9	60.745	306.12	-932.27	56.389	369.02	-771.48	67.069	438.86	-720.56	75.062	326.97	-667.8	100.75	381.09	-1086.1	699.85	111.61	-1011	598.77	114.64	-1081.5	610.88	124.21	-1020.2	687.65	97.842	-1049	511.46	132.01	-1040.9	501.68	255.63	-1155.6	344.19	137.65	-1098.9	248.66	140.8	-1160.7	265.68	147.69	-1095.9	324.78	131.58	-1138.7	102.73	164.46	-1135.9	112.48	257.59	-1218.3	73.428	210.43	-1211.8	47.783	243.49	-1215.2	46.076	182.23	-1030.7	42.301	142.65	-998.95	46.628	258.83	-941.97	56.611	209.16	-1034.4	1567	263.48	-1141.9	1313.3	252.67
93	0.38333	-873.04	1277.5	257.86	-974.32	1517.2	432.23	-1000.2	1496.4	84.693	-871.97	1824.7	234.79	-915.42	1003.9	394.96	-930.68	1016.9	148.17	-1135.2	1036.8	313.57	-1132.6	1043.5	232.74	-994.48	926.96	469.22	-1057.2	932.69	94.263	-997.15	1096.8	443.15	-1029.3	1099.2	108.38	-1156.7	999.25	274.11	-901.34	679.79	460.9	-804.82	629.59	416.46	-869.62	594.97	444.21	-834.86	734.97	438.06	-828.75	538.75	431.65	-853.19	528.76	298.95	-890.36	312.22	428.76	-817.02	238.66	392.56	-885.37	242.58	414.66	-825.19	308.11	414.58	-865.41	127.66	397.16	-838.96	143.32	311.18	-920.76	86.275	334.96	-902.12	58.789	306.03	-915.12	54.066	368.98	-754.28	68.494	438.16	-704.04	77.689	326.01	-651.67	104.57	379.91	-1082.8	699.95	111.83	-1008.4	598.39	114.81	-1078.8	610.94	124.37	-1017	687.35	98.038	-1047	511.25	132.03	-1038.8	501.4	255.66	-1154.3	344.51	137.75	-1098.1	248.69	140.83	-1159.8	265.98	147.81	-1094.8	324.8	131.61	-1138.5	102.87	164.6	-1135.7	112.58	257.72	-1218.2	73.592	210.57	-1211.7	47.864	243.6	-1215.2	46.272	182.32	-1030.6	42.303	142.67	-998.88	46.398	258.9	-941.86	56.319	209.18	-1028.9	1566.5	263.34	-1136	1312.8	252.5
94	0.3875	-867.53	1276.9	257.89	-968.86	1516.6	432.21	-994.41	1495.8	84.624	-866.44	1824.1	234.87	-909.97	1003.3	394.9	-925.53	1016.2	148.13	-1129.7	1036.4	313.72	-1127.1	1043	232.94	-989.25	926.46	469.42	-1052.4	932.33	94.394	-991.46	1096.3	443.16	-1024.1	1098.7	108.41	-1151.1	998.75	274.32	-896.62	679.03	460.84	-800.08	628.88	416.55	-864.88	594.23	444.14	-830.15	734.24	438.16	-823.39	538.45	431.69	-847.97	528	298.92	-879.62	310.59	428.83	-804.57	238.95	392.35	-872.95	241.14	414.71	-814.43	308.16	414.42	-849.95	126.66	397.04	-824	143	310.9	-904.67	84.097	334.99	-885.51	57.054	305.95	-898.12	51.99	368.98	-737.29	70.114	437.45	-687.8	80.462	325.03	-635.82	108.54	378.71	-1079.5	700.03	112.03	-1005.7	598.01	114.99	-1076	610.99	124.53	-1013.8	687.03	98.244	-1045	511.04	132.05	-1036.7	501.13	255.7	-1153.1	344.83	137.86	-1097.3	248.72	140.87	-1158.9	266.28	147.95	-1093.6	324.81	131.66	-1138.3	103.03	164.74	-1135.4	112.69	257.87	-1218.2	73.763	210.72	-1211.6	47.949	243.71	-1215.1	46.472	182.42	-1030.6	42.307	142.69	-998.8	46.169	258.97	-941.75	56.025	209.21	-1023.3	1566	263.23	-1130.1	1312.3	252.35
95	0.39167	-862.01	1276.2	257.93	-963.39	1516	432.22	-988.64	1495.2	84.572	-860.91	1823.6	234.97	-904.5	1002.7	394.85	-920.35	1015.6	148.1	-1124.1	1035.9	313.88	-1121.5	1042.5	233.14	-984.04	925.92	469.63	-1047.5	931.95	94.525	-985.81	1095.7	443.19	-1018.8	1098.1	108.45	-1145.4	998.22	274.53	-891.95	678.21	460.77	-795.39	628.09	416.69	-860.21	593.42	444.07	-825.47	733.42	438.31	-818.08	538.1	431.75	-842.79	527.19	298.89	-868.97	309.05	428.9	-792.29	239.34	392.14	-860.66	239.81	414.76	-803.8	308.26	414.28	-834.68	125.85	396.93	-809.27	142.83	310.62	-888.75	82.131	335.04	-869.11	55.529	305.9	-881.32	50.15	369	-720.55	71.91	436.73	-671.85	83.366	324.05	-620.27	112.63	377.49	-1076.1	700.09	112.24	-1003	597.62	115.18	-1073.2	611.02	124.7	-1010.5	686.7	98.461	-1042.9	510.82	132.08	-1034.5	500.85	255.75	-1151.8	345.16	137.99	-1096.5	248.76	140.91	-1158	266.59	148.11	-1092.4	324.83	131.71	-1138.1	103.18	164.88	-1135.2	112.81	258.02	-1218.1	73.94	210.88	-1211.5	48.041	243.82	-1215	46.677	182.53	-1030.5	42.313	142.72	-998.73	45.943	259.04	-941.63	55.729	209.23	-1017.8	1565.4	263.14	-1124.2	1311.7	252.23
96	0.39583	-856.49	1275.5	257.98	-957.91	1515.3	432.24	-982.87	1494.6	84.54	-855.38	1823	235.08	-899	1002	394.81	-915.14	1014.9	148.07	-1118.6	1035.3	314.05	-1116	1041.9	233.34	-978.84	925.34	469.84	-1042.6	931.55	94.656	-980.2	1095.1	443.25	-1013.6	1097.6	108.5	-1139.8	997.66	274.75	-887.34	677.33	460.71	-790.74	627.23	416.86	-855.6	592.55	444	-820.82	732.54	438.5	-812.83	537.71	431.82	-837.63	526.33	298.86	-858.43	307.59	428.96	-780.18	239.81	391.94	-848.5	238.61	414.8	-793.3	308.42	414.13	-819.61	125.21	396.8	-794.79	142.81	310.35	-873.04	80.366	335.09	-852.94	54.205	305.85	-864.73	48.534	369.03	-704.08	73.864	436	-656.22	86.381	323.06	-605.05	116.81	376.26	-1072.6	700.13	112.45	-1000.2	597.23	115.38	-1070.3	611.05	124.86	-1007.1	686.36	98.689	-1040.7	510.59	132.11	-1032.3	500.58	255.81	-1150.4	345.49	138.12	-1095.6	248.8	140.96	-1157.1	266.89	148.28	-1091.2	324.86	131.76	-1137.8	103.35	165.04	-1135	112.95	258.17	-1218	74.126	211.05	-1211.5	48.139	243.95	-1214.9	46.889	182.65	-1030.5	42.32	142.74	-998.65	45.721	259.11	-941.5	55.43	209.25	-1012.2	1564.8	263.07	-1118.3	1311.1	252.12
97	0.4	-850.96	1274.9	258.03	-952.42	1514.6	432.28	-977.1	1494	84.526	-849.84	1822.4	235.21	-893.47	1001.3	394.78	-909.91	1014.2	148.06	-1113	1034.8	314.23	-1110.5	1041.3	233.54	-973.64	924.73	470.03	-1037.6	931.12	94.786	-974.62	1094.4	443.32	-1008.2	1097	108.56	-1134.1	997.08	274.96	-882.76	676.39	460.65	-786.12	626.3	417.07	-851.04	591.62	443.93	-816.2	731.59	438.72	-807.61	537.28	431.9	-832.51	525.43	298.83	-848.01	306.22	429.02	-768.27	240.36	391.74	-836.51	237.52	414.83	-782.95	308.63	413.99	-804.78	124.75	396.66	-780.59	142.92	310.07	-857.57	78.791	335.15	-837.01	53.069	305.8	-848.39	47.13	369.06	-687.93	75.953	435.26	-640.93	89.49	322.07	-590.17	121.08	375.03	-1069.1	700.14	112.65	-997.29	596.83	115.6	-1067.3	611.06	125.03	-1003.7	686.01	98.926	-1038.5	510.36	132.14	-1030	500.3	255.87	-1149.1	345.84	138.26	-1094.7	248.84	141.03	-1156.2	267.21	148.48	-1090	324.89	131.83	-1137.7	103.53	165.2	-1134.8	113.11	258.34	-1218	74.322	211.23	-1211.4	48.247	244.09	-1214.8	47.11	182.78	-1030.4	42.33	142.77	-998.56	45.503	259.18	-941.37	55.13	209.28	-1006.7	1564.2	263.03	-1112.4	1310.5	252.03
98	0.40417	-845.42	1274.1	258.09	-946.91	1513.9	432.35	-971.35	1493.3	84.533	-844.29	1821.8	235.35	-887.92	1000.7	394.76	-904.65	1013.4	148.05	-1107.5	1034.2	314.41	-1105	1040.7	233.74	-968.43	924.08	470.23	-1032.6	930.67	94.915	-969.06	1093.8	443.41	-1002.9	1096.4	108.62	-1128.5	996.47	275.18	-878.2	675.41	460.6	-781.51	625.33	417.3	-846.52	590.65	443.86	-811.57	730.59	438.97	-802.43	536.81	431.99	-827.4	524.5	298.79	-837.72	304.93	429.05	-756.56	240.97	391.53	-824.7	236.54	414.84	-772.77	308.88	413.84	-790.21	124.44	396.51	-766.69	143.15	309.78	-842.36	77.393	335.18	-821.37	52.107	305.74	-832.33	45.921	369.09	-672.12	78.153	434.51	-626	92.671	321.09	-575.65	125.39	373.82	-1065.6	700.14	112.86	-994.35	596.43	115.83	-1064.3	611.05	125.2	-1000.3	685.64	99.171	-1036.2	510.12	132.18	-1027.7	500.02	255.94	-1147.6	346.21	138.41	-1093.8	248.89	141.1	-1155.2	267.53	148.7	-1088.6	324.93	131.9	-1137.5	103.71	165.38	-1134.5	113.28	258.51	-1217.9	74.53	211.42	-1211.3	48.365	244.24	-1214.7	47.341	182.93	-1030.4	42.34	142.8	-998.47	45.289	259.24	-941.24	54.827	209.29	-1001.1	1563.6	263.01	-1106.5	1309.8	251.96
99	0.40833	-839.88	1273.4	258.17	-941.4	1513.2	432.43	-965.6	1492.6	84.561	-838.73	1821.1	235.51	-882.33	999.97	394.74	-899.36	1012.7	148.04	-1101.9	1033.5	314.59	-1099.4	1040.1	233.94	-963.21	923.41	470.41	-1027.6	930.2	95.043	-963.53	1093.1	443.52	-997.52	1095.7	108.7	-1122.8	995.84	275.39	-873.65	674.39	460.55	-776.91	624.31	417.55	-842	589.65	443.79	-806.94	729.55	439.24	-797.27	536.31	432.09	-822.3	523.54	298.74	-827.6	303.72	429.06	-745.08	241.63	391.33	-813.1	235.66	414.82	-762.76	309.17	413.7	-775.95	124.26	396.33	-753.1	143.49	309.48	-827.44	76.157	335.19	-806.04	51.304	305.66	-816.58	44.891	369.09	-656.69	80.437	433.74	-611.45	95.902	320.12	-561.52	129.73	372.62	-1062	700.11	113.07	-991.34	596.02	116.07	-1061.1	611.04	125.38	-996.75	685.27	99.423	-1033.8	509.88	132.23	-1025.3	499.75	256.02	-1146.2	346.59	138.56	-1092.9	248.94	141.17	-1154.3	267.86	148.93	-1087.3	324.97	131.98	-1137.3	103.91	165.56	-1134.3	113.47	258.69	-1217.9	74.754	211.62	-1211.2	48.499	244.4	-1214.5	47.587	183.08	-1030.4	42.351	142.84	-998.37	45.079	259.31	-941.1	54.52	209.31	-995.54	1563	263.01	-1100.7	1309.1	251.91
